<svg xmlns="http://www.w3.org/2000/svg" version="1.1" xmlns:xlink="http://www.w3.org/1999/xlink" xmlns:svgjs="http://svgjs.dev/svgjs" width="1500" height="299" viewBox="0 0 1500 299"><g transform="matrix(1,0,0,1,-0.9090909090909918,0.9094803658178705)"><svg viewBox="0 0 396 79" data-background-color="#076585" preserveAspectRatio="xMidYMid meet" height="299" width="1500" xmlns="http://www.w3.org/2000/svg" xmlns:xlink="http://www.w3.org/1999/xlink"><g id="tight-bounds" transform="matrix(1,0,0,1,0.2400000000000091,-0.2402974879585713)"><svg viewBox="0 0 395.52 79.48059497591716" height="79.48059497591716" width="395.52"><g><svg viewBox="0 0 542.1843855287601 108.95311880177464" height="79.48059497591716" width="395.52"><g transform="matrix(1,0,0,1,146.66438552876016,29.208200927063004)"><svg viewBox="0 0 395.52 50.53671694764863" height="50.53671694764863" width="395.52"><g id="textblocktransform"><svg viewBox="0 0 395.52 50.53671694764863" height="50.53671694764863" width="395.52" id="textblock"><g><svg viewBox="0 0 395.52 50.53671694764863" height="50.53671694764863" width="395.52"><g transform="matrix(1,0,0,1,0,0)"><svg width="395.52" viewBox="3.5 -35 284.73 36" height="50.53671694764863" data-palette-color="#ffffff"><g class="wordmark-text-0" data-fill-palette-color="primary" id="text-0"><path d="M10.75-3.75L32.25-3.75 32.25 0 3.5 0 3.5-35 10.75-35 10.75-3.75ZM51.75-2.5L51.75-2.5Q54.2-2.5 56.32-3.35 58.45-4.2 60.5-5.75L60.5-5.75 62.5-2.75Q61.55-1.9 60.27-1.2 59-0.5 57.52-0.03 56.05 0.45 54.45 0.73 52.85 1 51.25 1L51.25 1Q47.7 1 44.77 0.08 41.85-0.85 39.8-2.63 37.75-4.4 36.62-7 35.5-9.6 35.5-13L35.5-13Q35.5-16.35 36.57-18.98 37.65-21.6 39.57-23.38 41.5-25.15 44.15-26.08 46.8-27 50-27L50-27Q53-27 55.65-26.1 58.3-25.2 60.25-23.48 62.2-21.75 63.35-19.3 64.5-16.85 64.5-13.75L64.5-13.75 64.5-10.25 43.15-10.25Q43.75-6.1 46.02-4.3 48.3-2.5 51.75-2.5ZM50-23.75L50-23.75Q48.55-23.75 47.3-23.2 46.05-22.65 45.12-21.45 44.2-20.25 43.62-18.35 43.05-16.45 43-13.75L43-13.75 57-13.75Q57-16.35 56.4-18.25 55.8-20.15 54.82-21.38 53.85-22.6 52.57-23.18 51.3-23.75 50-23.75ZM76-8.25L76-8.25Q76-3.5 81.75-3.5L81.75-3.5 88.75-3.5 88.75-13 81.75-13Q76-13 76-8.25ZM81.75-16.5L88.75-16.5Q88.75-20.1 86.87-21.8 85-23.5 82-23.5L82-23.5Q79.75-23.5 77.59-22.83 75.45-22.15 73.75-21L73.75-21 72-24Q73.09-24.75 74.42-25.3 75.75-25.85 77.15-26.23 78.55-26.6 79.92-26.8 81.3-27 82.5-27L82.5-27Q85.7-27 88.15-26.25 90.59-25.5 92.3-24.1 94-22.7 94.87-20.78 95.75-18.85 95.75-16.5L95.75-16.5 95.75 0 81.75 0Q74.95 0 71.72-2.05 68.5-4.1 68.5-8.25L68.5-8.25Q68.5-12.4 71.72-14.45 74.95-16.5 81.75-16.5L81.75-16.5ZM122.24-26L122.24-22.5 116.24-22.5Q112.84-22.5 111.04-20.68 109.24-18.85 109.24-15.25L109.24-15.25 109.24 0 102.24 0 102.24-15.25Q102.24-20.35 105.47-23.18 108.69-26 114.74-26L114.74-26 122.24-26ZM153.74-15.75L153.74 0 146.74 0 146.74-15.75Q146.74-19.35 144.94-20.93 143.14-22.5 139.74-22.5L139.74-22.5 133.24-22.5 133.24 0 126.24 0 126.24-26 139.74-26Q146.89-26 150.31-23.43 153.74-20.85 153.74-15.75L153.74-15.75ZM189.24-35L196.49-35 196.49 0 186.99 0 168.24-28.5 167.74-28.5 167.74 0 160.49 0 160.49-35 169.99-35 188.74-6.5 189.24-6.5 189.24-35ZM218.49-2.5L218.49-2.5Q220.94-2.5 223.06-3.35 225.19-4.2 227.24-5.75L227.24-5.75 229.24-2.75Q228.29-1.9 227.01-1.2 225.74-0.5 224.26-0.03 222.79 0.45 221.19 0.73 219.59 1 217.99 1L217.99 1Q214.44 1 211.51 0.08 208.59-0.85 206.54-2.63 204.49-4.4 203.36-7 202.24-9.6 202.24-13L202.24-13Q202.24-16.35 203.31-18.98 204.39-21.6 206.31-23.38 208.24-25.15 210.89-26.08 213.54-27 216.74-27L216.74-27Q219.74-27 222.39-26.1 225.04-25.2 226.99-23.48 228.94-21.75 230.09-19.3 231.24-16.85 231.24-13.75L231.24-13.75 231.24-10.25 209.89-10.25Q210.49-6.1 212.76-4.3 215.04-2.5 218.49-2.5ZM216.74-23.75L216.74-23.75Q215.29-23.75 214.04-23.2 212.79-22.65 211.86-21.45 210.94-20.25 210.36-18.35 209.79-16.45 209.74-13.75L209.74-13.75 223.74-13.75Q223.74-16.35 223.14-18.25 222.54-20.15 221.56-21.38 220.59-22.6 219.31-23.18 218.04-23.75 216.74-23.75ZM263.23-26L252.48-13.15 263.48 0 255.48 0 248.48-8.35 241.48 0 233.48 0 244.48-13.15 233.73-26 241.73-26 248.48-17.9 255.23-26 263.23-26ZM269.23-9.5L269.23-22.5 264.48-22.5 264.48-26 269.23-26 269.23-34 276.23-34 276.23-26 283.98-26 283.98-22.5 276.23-22.5 276.23-9.5Q276.23-7.6 276.66-6.28 277.08-4.95 277.81-4.13 278.53-3.3 279.48-2.9 280.43-2.5 281.48-2.5L281.48-2.5Q282.98-2.5 284.38-2.98 285.78-3.45 286.73-4L286.73-4 288.23-0.75Q286.73 0 284.81 0.5 282.88 1 280.98 1L280.98 1Q275.33 1 272.28-1.8 269.23-4.6 269.23-9.5L269.23-9.5Z" fill="#ffffff" data-fill-palette-color="primary"></path></g></svg></g></svg></g></svg></g></svg></g><g><svg viewBox="0 0 134.73387953862706 108.95311880177464" height="108.95311880177464" width="134.73387953862706"><g><svg xmlns="http://www.w3.org/2000/svg" xmlns:xlink="http://www.w3.org/1999/xlink" version="1.1" x="0" y="0" viewBox="4.9995 13.61025 90.00087502340824 72.77958641336241" enable-background="new 0 0 100 100" xml:space="preserve" height="108.95311880177464" width="134.73387953862706" class="icon-icon-0" data-fill-palette-color="accent" id="icon-0"><g fill="#ffffff" data-fill-palette-color="accent"><path fill="#ffffff" d="M71.62 59.237l-7.172 3.973c-4.41 2.441-9.407 3.734-14.45 3.734-5.039 0-10.035-1.292-14.449-3.734l-8.796-4.873c0.11 4.083-0.062 8.421-1.726 11.882-0.459 0.945-1.377 1.8-1.36 2.936 0.02 1.576 1.812 1.842 3.102 1.602 0 0 7.604-1.458 18.126 8.854 1.045 1.025 2.076 1.989 3.492 2.49 2.771 0.983 4.831-0.715 6.735-2.508 1.296-1.219 2.741-2.277 4.193-3.306 3.486-2.463 7.91-5.56 12.351-5.635 0 0 5.729 1.25 2.396-4.062C74.062 70.59 72.535 65.669 71.62 59.237" data-fill-palette-color="accent"></path><polygon fill="#ffffff" points="14.998,55.277 13.331,65.277 13.331,78.611 19.998,78.611 19.998,65.277 18.331,55.277    18.331,46.051 14.998,44.204  " data-fill-palette-color="accent"></polygon><path fill="#ffffff" d="M93.499 34.391L61.22 16.512c-6.986-3.869-15.456-3.869-22.438 0L6.498 34.391c-1.998 1.108-1.998 3.996 0 5.106l8.5 4.706v-7.259h38.334v3.333H18.331v5.773l20.45 11.327c6.982 3.867 15.452 3.867 22.438 0l32.279-17.879C95.501 38.387 95.501 35.5 93.499 34.391" data-fill-palette-color="accent"></path></g></svg></g></svg></g></svg></g><defs></defs></svg><rect width="395.52" height="79.48059497591716" fill="none" stroke="none" visibility="hidden"></rect></g></svg></g></svg>